HIERARCHY
ROOT Hips
{
	OFFSET 0.00000 0.00000 0.00000
	CHANNELS 6 Xposition Yposition Zposition Zrotation Yrotation Xrotation 
	JOINT LHipJoint
	{
		OFFSET 0 0 0
		CHANNELS 3 Zrotation Yrotation Xrotation
		JOINT LeftHip
		{
			OFFSET 1.73240 -1.89999 0.57994
			CHANNELS 3 Zrotation Yrotation Xrotation
			JOINT LeftKnee
			{
				OFFSET 2.43106 -6.67930 0.00000
				CHANNELS 3 Zrotation Yrotation Xrotation
				JOINT LeftAnkle
				{
					OFFSET 2.78854 -7.66147 0.00000
					CHANNELS 3 Zrotation Yrotation Xrotation
					JOINT LeftToe
					{
						OFFSET 0.17314 -0.47571 2.01064
						CHANNELS 3 Zrotation Yrotation Xrotation
						End Site
						{
							OFFSET 0.00000 -0.00000 1.04147
						}
					}
				}
			}
		}
	}
	JOINT RHipJoint
	{
		OFFSET 0 0 0
		CHANNELS 3 Zrotation Yrotation Xrotation
		JOINT RightHip
		{
			OFFSET -1.57078 -1.89998 0.57994
			CHANNELS 3 Zrotation Yrotation Xrotation
			JOINT RightKnee
			{
				OFFSET -2.50166 -6.87326 0.00000
				CHANNELS 3 Zrotation Yrotation Xrotation
				JOINT RightAnkle
				{
					OFFSET -2.77304 -7.61886 0.00000
					CHANNELS 3 Zrotation Yrotation Xrotation
					JOINT RightToe
					{
						OFFSET -0.23513 -0.64602 2.11039
						CHANNELS 3 Zrotation Yrotation Xrotation
						End Site
						{
							OFFSET -0.00000 -0.00000 1.10597
						}
					}
				}
			}
		}
	}
	JOINT lowerback
	{
		OFFSET 0 0 0
		CHANNELS 3 Zrotation Yrotation Xrotation
		JOINT Chest
		{
			OFFSET -0.00908 2.00015 -0.35323
			CHANNELS 3 Zrotation Yrotation Xrotation
			JOINT Chest2
			{
				OFFSET 0.05647 2.02258 0.04270
				CHANNELS 3 Zrotation Yrotation Xrotation
				JOINT lowerneck
				{
					OFFSET 0 0 0
					CHANNELS 3 Zrotation Yrotation Xrotation
					JOINT Neck
					{
						OFFSET -0.02074 1.73711 0.13117
						CHANNELS 3 Zrotation Yrotation Xrotation
						JOINT Head
						{
							OFFSET -0.02359 1.73615 -0.24320
							CHANNELS 3 Zrotation Yrotation Xrotation
							End Site
							{
								OFFSET -0.00579 1.75982 -0.09688
							}
						}
					}
				}
				JOINT LeftCollar
				{
					OFFSET 0 0 0
					CHANNELS 3 Zrotation Yrotation Xrotation
					JOINT LeftShoulder
					{
						OFFSET 3.20537 1.11432 -0.27680
CHANNELS 3 Zrotation Xrotation Yrotation
						JOINT LeftElbow
						{
OFFSET 0 -5.059230 -0.000000
CHANNELS 3 Zrotation Xrotation Yrotation
							JOINT LeftWrist
							{
OFFSET 0 -3.519960 0.000000
CHANNELS 3 Zrotation Xrotation Yrotation
								JOINT lhand
								{
									OFFSET 0 0 0
CHANNELS 3 Zrotation Xrotation Yrotation
									JOINT LFingers
									{
OFFSET 0 -0.652380 0.000000
CHANNELS 3 Zrotation Xrotation Yrotation
										End Site
										{
OFFSET 0 -0.525960 0.000000
										}
									}
								}
								JOINT LThumb
								{
OFFSET 0 0.000000 0.000000
CHANNELS 3 Zrotation Xrotation Yrotation
									End Site
									{
OFFSET 0 -0.533990 0.533990
									}
								}
							}
						}
					}
				}
				JOINT RightCollar
				{
					OFFSET 0 0 0
					CHANNELS 3 Zrotation Yrotation Xrotation
					JOINT RightShoulder
					{
						OFFSET -2.96983 1.42602 -0.37449
CHANNELS 3 Zrotation Xrotation Yrotation
						JOINT RightElbow
						{
OFFSET 0 -5.408670 0.000000
CHANNELS 3 Zrotation Xrotation Yrotation
							JOINT RightWrist
							{
OFFSET 0 -3.129640 0.000000
CHANNELS 3 Zrotation Xrotation Yrotation
								JOINT rhand
								{
									OFFSET 0 0 0
CHANNELS 3 Zrotation Xrotation Yrotation
									JOINT RFingers
									{
OFFSET 0 -0.832710 0.000000
CHANNELS 3 Zrotation Xrotation Yrotation
										End Site
										{
OFFSET 0 -0.671350 0.000000
										}
									}
								}
								JOINT RThumb
								{
OFFSET 0 0.000000 0.000000
CHANNELS 3 Zrotation Xrotation Yrotation
									End Site
									{
OFFSET 0 -0.681600 0.681600
									}
								}
							}
						}
					}
				}
			}
		}
	}
}
MOTION
Frames: 6
Frame Time: 0.008333333333333333
2.937200 17.238100 36.800500 7.118900 -3.098300 -8.322300 0.000000 0.000000 0.000000 -30.512500 -0.399100 0.654300 4.310100 12.562000 37.750100 1.459100 -8.159200 -21.615000 0.655200 -5.177300 -14.414800 0.000000 0.000000 0.000000 3.354500 16.580300 -27.404100 -2.781800 -10.333100 30.062400 0.239300 -12.224000 -13.697800 -0.001000 0.200600 -0.551200 -4.378000 -1.648200 23.296400 5.711100 -2.690800 4.014100 9.721600 -1.121100 -8.047200 -7.543300 -10.661300 -2.973200 -6.131900 -12.776900 34.781200 -2.421200 -7.374200 12.075900 -0.000000 0.000000 0.000000 0.699400 14.665200 -17.696000 37.678700 -46.632900 16.731600 17.911200 2.609300 -49.513200 0.000000 0.000000 0.000000 -7.125000 0.000000 0.000000 -50.029400 76.623500 38.873000 -0.000000 0.000000 0.000000 -13.978200 -3.542200 -33.696400 -23.748800 -34.897500 -7.562300 -20.590100 -42.588800 11.253000 0.000000 0.000000 0.000000 7.125000 0.000000 -0.000000 5.860200 41.906600 0.448900
2.972480 17.249347 36.720769 7.231167 -3.162299 -8.398885 0.000000 0.000000 0.000000 -30.832831 -0.453928 0.941293 4.132830 12.333383 36.924201 1.487752 -7.810551 -21.825676 0.624338 -5.055594 -14.067356 0.000000 0.000000 0.000000 3.272091 16.339432 -27.290227 -2.743909 -10.268297 29.850118 0.220020 -12.425103 -14.401324 -0.002741 0.326992 -0.898443 -4.594968 -1.657706 23.296936 5.676021 -2.760423 3.993012 9.831457 -1.149083 -8.047602 -7.568538 -10.643560 -3.116663 -6.132971 -12.742289 34.928278 -2.435325 -7.364024 12.168284 0.000000 0.000000 0.000000 0.680321 14.932578 -17.772116 37.416142 -46.461923 16.541142 17.762917 2.906201 -49.928459 0.000000 0.000000 0.000000 -7.125000 0.000000 0.000000 -51.705567 76.773791 40.440850 0.000000 0.000000 0.000000 -13.475511 -2.914257 -33.441875 -24.644991 -35.831917 -8.084002 -21.255599 -44.707339 11.677297 0.000000 0.000000 0.000000 7.125000 0.000000 0.000000 5.335687 42.423348 0.343596
3.009556 17.260390 36.636665 7.324353 -3.143913 -8.373055 0.000000 0.000000 0.000000 -31.132185 -0.638689 1.047992 3.994262 12.152178 36.273241 1.511999 -7.553167 -22.005376 0.582327 -4.883731 -13.577846 0.000000 0.000000 0.000000 3.198662 15.915390 -27.277684 -2.695818 -10.185194 29.578799 0.216634 -12.764984 -15.068518 -0.004413 0.426509 -1.171942 -4.723417 -1.693680 23.263175 5.624844 -2.842788 3.951591 9.871737 -1.184386 -8.055832 -7.540705 -10.630022 -3.326957 -6.073515 -12.732419 35.030859 -2.439724 -7.350256 12.255008 0.000000 0.000000 0.000000 0.708890 15.156916 -17.915436 37.128438 -46.272916 16.332959 17.420750 3.083606 -50.240660 0.000000 0.000000 0.000000 -7.125000 0.000000 0.000000 -53.134473 76.791336 41.678985 0.000000 0.000000 0.000000 -12.972008 -2.462032 -33.500764 -25.424907 -36.631283 -8.543685 -20.902574 -46.719836 12.029002 0.000000 0.000000 0.000000 7.125000 0.000000 0.000000 5.712575 42.756785 0.314984
3.048201 17.271334 36.548529 7.392457 -3.052248 -8.251053 0.000000 0.000000 0.000000 -31.401571 -0.942014 0.980277 3.893624 12.017423 35.793695 1.531973 -7.386792 -22.155013 0.529566 -4.663309 -12.950826 0.000000 0.000000 0.000000 3.144843 15.320743 -27.358897 -2.638131 -10.084848 29.251886 0.228945 -13.245355 -15.706428 -0.005967 0.497135 -1.366149 -4.761781 -1.753300 23.195287 5.559479 -2.933760 3.893433 9.842358 -1.225335 -8.068760 -7.458174 -10.621253 -3.599361 -5.956228 -12.747917 35.086853 -2.435179 -7.333326 12.333869 0.000000 0.000000 0.000000 0.786307 15.338043 -18.126836 36.814423 -46.065063 16.106228 16.890685 3.145460 -50.447656 0.000000 0.000000 0.000000 -7.125000 0.000000 0.000000 -54.303479 76.677690 42.577731 0.000000 0.000000 0.000000 -12.467313 -2.184087 -33.866803 -26.090401 -37.297680 -8.942367 -19.574701 -48.623890 12.308926 0.000000 0.000000 0.000000 7.125000 0.000000 0.000000 6.951865 42.912334 0.360061
3.072301 17.290078 36.478638 6.947875 -3.521264 -8.423704 0.000000 0.000000 0.000000 -30.918028 -0.598252 1.026536 3.807332 11.898998 35.376294 1.553864 -7.378156 -22.316484 0.486721 -4.471511 -12.407568 0.000000 0.000000 0.000000 3.950257 15.364325 -27.037897 -2.608541 -10.032564 29.082382 0.256593 -14.131973 -16.831505 -0.003289 0.355546 -0.977065 -4.503642 -1.641034 23.073983 5.613905 -2.722013 4.080544 9.670577 -1.147947 -7.848979 -7.143332 -10.665570 -3.628281 -5.934404 -12.861522 34.890570 -2.473606 -7.343435 12.227159 0.000000 0.000000 0.000000 1.051543 15.421657 -18.538748 36.359131 -45.757317 15.779671 16.456414 3.286579 -50.283708 0.000000 0.000000 0.000000 -7.125000 0.000000 0.000000 -53.989039 76.428253 42.066941 0.000000 0.000000 0.000000 -11.931017 -2.134950 -34.348203 -26.675901 -37.865507 -9.300589 -19.719101 -50.130820 12.511501 0.000000 0.000000 0.000000 7.125000 0.000000 0.000000 6.860820 43.139612 0.316814
3.091574 17.305698 36.393295 6.424956 -4.035214 -8.540622 0.000000 0.000000 0.000000 -30.302288 -0.295708 0.813402 3.774308 11.853772 35.216757 1.561205 -7.398724 -22.370344 0.437522 -4.240024 -11.753609 0.000000 0.000000 0.000000 4.846545 15.567048 -26.787352 -2.582494 -9.986322 28.932601 0.302784 -15.177943 -18.014328 -0.007417 -0.109745 0.301662 -4.268004 -1.520433 23.132518 5.706806 -2.502905 4.193310 9.573455 -1.053995 -7.803621 -6.800016 -10.690963 -3.751652 -6.035262 -12.911964 34.868258 -2.572348 -7.337431 12.199309 0.000000 0.000000 0.000000 1.318029 15.527772 -18.884232 35.865676 -45.418632 15.427348 16.121489 3.472390 -50.031420 0.000000 0.000000 0.000000 -7.125000 0.000000 0.000000 -53.303255 76.173573 41.236790 0.000000 0.000000 0.000000 -11.413542 -2.022301 -34.565593 -27.327030 -38.485038 -9.703606 -20.679007 -51.673342 12.432877 0.000000 0.000000 0.000000 7.125000 0.000000 0.000000 5.984653 43.158890 0.269540
